<svg xmlns="http://www.w3.org/2000/svg" width="81.808" height="81.813" viewBox="0 0 81.808 81.813">
  <path id="sun" d="M40.906,25.566a15.34,15.34,0,1,0,15.34,15.34A15.364,15.364,0,0,0,40.906,25.566ZM80.278,38.429,65.146,30.871,70.5,14.828a2.763,2.763,0,0,0-3.5-3.5L50.957,16.682,43.383,1.534a2.766,2.766,0,0,0-4.953,0L30.871,16.666,14.813,11.313a2.763,2.763,0,0,0-3.5,3.5l5.353,16.043L1.534,38.429a2.766,2.766,0,0,0,0,4.953l15.132,7.558L11.313,67a2.763,2.763,0,0,0,3.5,3.5l16.043-5.353,7.558,15.132a2.766,2.766,0,0,0,4.953,0l7.558-15.132L66.968,70.5a2.763,2.763,0,0,0,3.5-3.5L65.114,50.957,80.246,43.4a2.77,2.77,0,0,0,.032-4.969ZM55.367,55.367a20.451,20.451,0,1,1,0-28.922A20.475,20.475,0,0,1,55.367,55.367Z" fill="#2e2e2e"/>
</svg>
