<svg id="logo" xmlns="http://www.w3.org/2000/svg" width="95.5" height="76.3" viewBox="0 0 95.5 76.3">
  <g id="Group_1" data-name="Group 1" transform="translate(15.487 70.884)">
    <path id="Path_1" data-name="Path 1" d="M79.631,406.884a1.366,1.366,0,0,1-.323-.953v-2.806a1.354,1.354,0,0,1,.323-.946,1.1,1.1,0,0,1,.857-.355,1.117,1.117,0,0,1,.864.352,1.351,1.351,0,0,1,.323.95v.128c0,.051-.023.075-.069.075l-.361.022c-.046,0-.069-.025-.069-.075v-.189a.854.854,0,0,0-.188-.575.674.674,0,0,0-1,0,.846.846,0,0,0-.191.575v2.89a.847.847,0,0,0,.191.575.675.675,0,0,0,1,0,.854.854,0,0,0,.188-.575v-.19c0-.05.023-.075.069-.075l.361.022c.046,0,.069.026.069.076v.121a1.357,1.357,0,0,1-.327.953,1.216,1.216,0,0,1-1.717,0Z" transform="translate(-79.308 -401.823)" fill="#fff"/>
    <path id="Path_2" data-name="Path 2" d="M89.888,406.876a1.374,1.374,0,0,1-.329-.96v-2.769a1.375,1.375,0,0,1,.329-.961,1.112,1.112,0,0,1,.864-.363,1.131,1.131,0,0,1,.874.363,1.366,1.366,0,0,1,.333.961v2.769a1.369,1.369,0,0,1-.333.957,1.123,1.123,0,0,1-.874.367A1.11,1.11,0,0,1,89.888,406.876Zm1.381-.337a.877.877,0,0,0,.2-.594v-2.821a.891.891,0,0,0-.2-.6.649.649,0,0,0-.517-.231.633.633,0,0,0-.507.231.9.9,0,0,0-.195.6v2.821a.887.887,0,0,0,.195.594.631.631,0,0,0,.507.231A.646.646,0,0,0,91.269,406.539Z" transform="translate(-83.695 -401.823)" fill="#fff"/>
    <path id="Path_3" data-name="Path 3" d="M102.266,402.39h-1.6c-.018,0-.028.01-.028.03v1.88c0,.02.01.031.028.031h1.006c.046,0,.069.025.069.076v.326c0,.051-.023.076-.069.076H100.67c-.018,0-.028.011-.028.031v2.312c0,.051-.023.076-.069.076h-.354c-.046,0-.07-.026-.07-.076V402c0-.051.023-.076.07-.076h2.047c.046,0,.069.025.069.076v.318C102.335,402.364,102.312,402.39,102.266,402.39Z" transform="translate(-87.111 -401.865)" fill="#fff"/>
    <path id="Path_4" data-name="Path 4" d="M112.007,402.39h-1.6c-.018,0-.028.01-.028.03v1.88c0,.02.01.031.028.031h1.006c.046,0,.069.025.069.076v.326c0,.051-.023.076-.069.076h-1.006c-.018,0-.028.011-.028.031v2.312c0,.051-.023.076-.069.076h-.354c-.046,0-.07-.026-.07-.076V402c0-.051.023-.076.07-.076h2.047c.046,0,.069.025.069.076v.318C112.076,402.364,112.053,402.39,112.007,402.39Z" transform="translate(-90.758 -401.865)" fill="#fff"/>
    <path id="Path_5" data-name="Path 5" d="M121.761,402.39h-1.61c-.018,0-.028.01-.028.03v1.88c0,.02.01.031.028.031h1.014c.046,0,.069.025.069.076v.326c0,.051-.023.076-.069.076h-1.014c-.018,0-.028.011-.028.031v1.887c0,.02.01.031.028.031h1.61c.046,0,.069.025.069.076v.318c0,.051-.023.076-.069.076H119.7c-.046,0-.07-.026-.07-.076V402c0-.051.023-.076.07-.076h2.061c.046,0,.069.025.069.076v.318C121.83,402.364,121.807,402.39,121.761,402.39Z" transform="translate(-94.404 -401.865)" fill="#fff"/>
    <path id="Path_6" data-name="Path 6" d="M131.817,402.39h-1.61c-.018,0-.028.01-.028.03v1.88c0,.02.01.031.028.031h1.013c.046,0,.07.025.07.076v.326c0,.051-.023.076-.07.076h-1.013c-.018,0-.028.011-.028.031v1.887c0,.02.01.031.028.031h1.61c.046,0,.07.025.07.076v.318c0,.051-.023.076-.07.076h-2.061c-.046,0-.07-.026-.07-.076V402c0-.051.023-.076.07-.076h2.061c.046,0,.07.025.07.076v.318C131.887,402.364,131.864,402.39,131.817,402.39Z" transform="translate(-98.169 -401.865)" fill="#fff"/>
    <path id="Path_7" data-name="Path 7" d="M146.96,406.869a1.431,1.431,0,0,1-.319-.968v-.175c0-.051.023-.076.069-.076h.34c.046,0,.069.025.069.076v.151a1.041,1.041,0,0,0,.187.647.584.584,0,0,0,.486.246.6.6,0,0,0,.486-.235.938.938,0,0,0,.195-.62.972.972,0,0,0-.094-.443,1.148,1.148,0,0,0-.243-.325q-.149-.14-.5-.428a7.138,7.138,0,0,1-.549-.48,1.61,1.61,0,0,1-.329-.481,1.56,1.56,0,0,1-.129-.658,1.344,1.344,0,0,1,.312-.935,1.135,1.135,0,0,1,1.656.031,1.494,1.494,0,0,1,.315,1v.189c0,.051-.023.075-.069.075H148.5c-.046,0-.069-.025-.069-.075v-.2a1.052,1.052,0,0,0-.185-.647.579.579,0,0,0-.489-.246.572.572,0,0,0-.458.215.923.923,0,0,0-.18.609,1,1,0,0,0,.079.412,1.143,1.143,0,0,0,.239.337c.107.106.264.245.472.416a7.421,7.421,0,0,1,.621.541,1.562,1.562,0,0,1,.316.454,1.438,1.438,0,0,1,.112.594,1.461,1.461,0,0,1-.327.995,1.063,1.063,0,0,1-.84.374A1.046,1.046,0,0,1,146.96,406.869Z" transform="translate(-104.505 -401.823)" fill="#fff"/>
    <path id="Path_8" data-name="Path 8" d="M158.749,401.92h.354c.046,0,.069.025.069.076v5.154c0,.051-.023.076-.069.076h-.354c-.046,0-.069-.026-.069-.076v-2.312c0-.02-.01-.031-.028-.031h-1.235c-.018,0-.028.011-.028.031v2.312c0,.051-.023.076-.069.076h-.354c-.046,0-.07-.026-.07-.076V402c0-.051.023-.076.07-.076h.354c.046,0,.069.025.069.076v2.3c0,.02.01.031.028.031h1.235c.018,0,.028-.011.028-.031V402C158.68,401.945,158.7,401.92,158.749,401.92Z" transform="translate(-108.349 -401.865)" fill="#fff"/>
    <path id="Path_9" data-name="Path 9" d="M167.6,406.876a1.373,1.373,0,0,1-.33-.96v-2.769a1.375,1.375,0,0,1,.33-.961,1.112,1.112,0,0,1,.864-.363,1.131,1.131,0,0,1,.874.363,1.366,1.366,0,0,1,.333.961v2.769a1.369,1.369,0,0,1-.333.957,1.123,1.123,0,0,1-.874.367A1.11,1.11,0,0,1,167.6,406.876Zm1.381-.337a.877.877,0,0,0,.2-.594v-2.821a.891.891,0,0,0-.2-.6.649.649,0,0,0-.517-.231.633.633,0,0,0-.507.231.9.9,0,0,0-.195.6v2.821a.886.886,0,0,0,.195.594.631.631,0,0,0,.507.231A.646.646,0,0,0,168.978,406.539Z" transform="translate(-111.658 -401.823)" fill="#fff"/>
    <path id="Path_10" data-name="Path 10" d="M179.868,402.313a1.7,1.7,0,0,1,.312,1.065,1.681,1.681,0,0,1-.305,1.05.967.967,0,0,1-.805.4h-.714c-.019,0-.027.009-.027.029v2.289c0,.051-.023.076-.07.076H177.9c-.046,0-.069-.026-.069-.076v-5.161c0-.05.023-.076.069-.076h1.145A.985.985,0,0,1,179.868,402.313Zm-.375,1.8a1.232,1.232,0,0,0,.195-.728,1.248,1.248,0,0,0-.195-.731.593.593,0,0,0-.507-.277h-.632c-.019,0-.027.01-.027.03v1.948c0,.021.009.03.027.03h.632A.6.6,0,0,0,179.493,404.113Z" transform="translate(-116.18 -401.859)" fill="#fff"/>
  </g>
  <g id="Group_2" data-name="Group 2" transform="translate(0 54.798)">
    <path id="Path_11" data-name="Path 11" d="M48.739,379.261a5.539,5.539,0,0,1,1.53-3.923,4.944,4.944,0,0,1,3.754-1.635,16.969,16.969,0,0,1,3.818.725q.064,1.837.064,2c0,.162-.112.242-.338.242-.108,0-.177-.027-.209-.08q-.435-2.208-3.287-2.208a3.3,3.3,0,0,0-2.69,1.37,5.376,5.376,0,0,0,.1,6.6,3.637,3.637,0,0,0,2.974,1.507,4.7,4.7,0,0,0,2.094-.355c.075-.032.113-.113.113-.241l-.016-1.321v-.113a4.7,4.7,0,0,0-.129-1.385q-.064-.161-.523-.258a3.755,3.755,0,0,0-.717-.1c-.043,0-.064-.067-.064-.2a.391.391,0,0,1,.064-.266q2.062.081,2.111.081.128,0,1.74-.081a.711.711,0,0,1,.032.226c0,.161-.022.241-.064.241a2.139,2.139,0,0,0-.443.1,2.788,2.788,0,0,0-.491.185q-.16.113-.161,1.079,0,.338.024.733t.024.427a1.462,1.462,0,0,0,.113.564,1.6,1.6,0,0,1,.113.322q0,.13-.4.29c-.022.011-.126.051-.315.121s-.309.116-.362.137-.174.062-.362.121a4.339,4.339,0,0,1-.451.121q-.169.033-.483.1a5.18,5.18,0,0,1-.6.089q-.282.024-.661.049t-.8.024a4.811,4.811,0,0,1-3.617-1.563A5.2,5.2,0,0,1,48.739,379.261Z" transform="translate(-48.739 -373.703)" fill="#fff"/>
    <path id="Path_12" data-name="Path 12" d="M80.476,373.9a4.057,4.057,0,0,1,1.112.161,4.815,4.815,0,0,1,1.111.484,2.55,2.55,0,0,1,.9.918,2.66,2.66,0,0,1,.354,1.385,2.529,2.529,0,0,1-.507,1.418,3.324,3.324,0,0,1-1.377,1.144c-.107.043-.14.1-.1.161a11.454,11.454,0,0,0,1.853,2.836q1.546,1.692,2.513,1.692a.494.494,0,0,1,.048.225.535.535,0,0,1-.048.242,1.687,1.687,0,0,1-.435.048,4.767,4.767,0,0,1-3.915-2.32q-.258-.354-.589-.846c-.22-.327-.382-.563-.483-.709s-.22-.3-.355-.475a2.638,2.638,0,0,0-.354-.387,1.434,1.434,0,0,0-.33-.209,1.938,1.938,0,0,0-.6-.064,1.788,1.788,0,0,0-.194.007.226.226,0,0,0-.128.073.263.263,0,0,0-.065.193v2.369a4.694,4.694,0,0,0,.129,1.4q.081.209.572.338a3.174,3.174,0,0,0,.7.129c.042,0,.064.076.064.226a.77.77,0,0,1-.033.242q-1.611-.081-2.094-.081l-1.966.081a.509.509,0,0,1-.048-.291c0-.139.016-.209.048-.209a2.877,2.877,0,0,0,.628-.1c.268-.065.43-.145.483-.241a5.108,5.108,0,0,0,.113-1.515v-6.09a6.061,6.061,0,0,0-.113-1.386q-.048-.129-.475-.242a2.791,2.791,0,0,0-.637-.113c-.043,0-.065-.064-.065-.193a.4.4,0,0,1,.065-.274l1.934.032q.483,0,1.144-.032T80.476,373.9Zm-.258.709a4.4,4.4,0,0,0-1.128.113c-.043.011-.077.051-.1.121a2.108,2.108,0,0,0-.065.483c-.016.252-.025.642-.025,1.168v1.95q0,.468,1.4.468h.4a1.761,1.761,0,0,0,1.168-.565,1.952,1.952,0,0,0,.6-1.5A1.987,1.987,0,0,0,80.218,374.609Z" transform="translate(-60.493 -373.787)" fill="#fff"/>
    <path id="Path_13" data-name="Path 13" d="M103.522,376.083a6.4,6.4,0,0,0-.113-1.434c-.033-.085-.185-.164-.459-.233a2.759,2.759,0,0,0-.621-.1c-.043,0-.064-.07-.064-.21a.375.375,0,0,1,.064-.258q1.853.082,1.934.081.258,0,1.869-.081a.789.789,0,0,1,.031.242c0,.15-.021.226-.064.226a2.679,2.679,0,0,0-.58.113c-.279.075-.43.15-.451.225a6.244,6.244,0,0,0-.145,1.5v6.123a6.226,6.226,0,0,0,.145,1.5q.033.113.451.218a2.878,2.878,0,0,0,.58.1c.043,0,.064.081.064.242a.728.728,0,0,1-.031.226q-1.611-.081-1.869-.081-.081,0-1.934.081a.346.346,0,0,1-.064-.242c0-.15.021-.226.064-.226a2.964,2.964,0,0,0,.621-.1q.411-.1.459-.225a6.4,6.4,0,0,0,.113-1.434Z" transform="translate(-71.645 -373.763)" fill="#fff"/>
    <path id="Path_14" data-name="Path 14" d="M126.739,376.066a6.264,6.264,0,0,0-.113-1.418q-.048-.128-.556-.249a3.615,3.615,0,0,0-.717-.121c-.043,0-.064-.062-.064-.185a.36.36,0,0,1,.064-.25c.14.012.419.03.838.057s.773.04,1.063.04.632-.015,1.055-.048.674-.049.749-.049a.771.771,0,0,1,.032.242c0,.129-.022.193-.064.193a3.992,3.992,0,0,0-.7.129q-.54.129-.572.241a6.477,6.477,0,0,0-.128,1.5v6.123q0,1,.048,2.256a.477.477,0,0,1-.306.064.7.7,0,0,1-.532-.37l-6.251-8.862v6.879a6.82,6.82,0,0,0,.113,1.5c.022.075.2.153.54.233a3.738,3.738,0,0,0,.669.121c.032,0,.051.065.056.193a.749.749,0,0,1-.024.275q-1.611-.081-1.853-.081l-1.853.081a.386.386,0,0,1-.048-.242c0-.15.016-.226.048-.226a3.615,3.615,0,0,0,.733-.121c.338-.08.523-.169.556-.266a4.817,4.817,0,0,0,.161-1.514v-6.332a4.954,4.954,0,0,0-.113-1.209c-.033-.085-.215-.164-.547-.233a4.005,4.005,0,0,0-.725-.1c-.043,0-.065-.067-.065-.2a.391.391,0,0,1,.065-.266q1.256.033,1.643.033.838,0,1.289-.033.6,1.1,5.462,7.895a3.881,3.881,0,0,0,.048-.66Z" transform="translate(-78.458 -373.763)" fill="#fff"/>
    <path id="Path_15" data-name="Path 15" d="M148.366,373.988q.613,0,1.555-.015t1.248-.017a5.371,5.371,0,0,1,4.093,1.547,5.12,5.12,0,0,1,1.466,3.641,5.443,5.443,0,0,1-1.482,3.9,5.368,5.368,0,0,1-4.092,1.563q-.194,0-1.153-.033t-1.6-.016l-1.95.049a.385.385,0,0,1-.049-.242c0-.15.017-.226.049-.226a2.555,2.555,0,0,0,.62-.113q.412-.112.492-.257a5.13,5.13,0,0,0,.113-1.515v-6.09a6.093,6.093,0,0,0-.113-1.386q-.049-.129-.475-.242a2.786,2.786,0,0,0-.637-.113c-.043,0-.064-.064-.064-.193a.407.407,0,0,1,.064-.274Q147.286,373.989,148.366,373.988Zm.709,1.95v6.381a2.993,2.993,0,0,0,.242,1.224q.063.161.862.242t1.232.081q3.706,0,3.706-4.785a5.031,5.031,0,0,0-.975-3.126,3.346,3.346,0,0,0-2.844-1.289h-.081q-1.74,0-1.934.257A1.81,1.81,0,0,0,149.074,375.938Z" transform="translate(-90.526 -373.811)" fill="#fff"/>
    <path id="Path_16" data-name="Path 16" d="M176.03,373.916q.725,0,2.514-.064t2.69-.064q.064.467.249,1.232t.218.959a.412.412,0,0,1-.29.08c-.14,0-.215-.037-.225-.113a1.8,1.8,0,0,0-.677-1.135,2.4,2.4,0,0,0-1.193-.25h-1.079q-1.386,0-1.418.209a7.647,7.647,0,0,0-.081,1.354V378.7q0,.1.693.1h1.507a1.561,1.561,0,0,0,.427-.064q.226-.064.29-.081c.043-.01.1-.081.169-.209a1.118,1.118,0,0,0,.121-.282c.01-.06.049-.212.113-.459.011-.075.091-.113.242-.113a.378.378,0,0,1,.273.081v3.045a.373.373,0,0,1-.257.065c-.14,0-.225-.043-.258-.129q-.113-.435-.193-.653a.981.981,0,0,0-.121-.258,1.033,1.033,0,0,0-.137-.1,5.64,5.64,0,0,0-1.708-.129q-1.16,0-1.16.145v2.5a5.07,5.07,0,0,0,.145,1.466c.033.108.4.161,1.1.161h.773a5.036,5.036,0,0,0,2.03-.273,1.746,1.746,0,0,0,.539-.572,3.742,3.742,0,0,0,.475-1.055c.021-.065.1-.1.226-.1a.592.592,0,0,1,.4.1q-.082.209-.25.669t-.266.741q-.1.282-.209.653a4.027,4.027,0,0,0-.145.612q-.821,0-2.594-.032t-2.9-.032l-1.95.049a.424.424,0,0,1-.049-.259c0-.14.017-.209.049-.209a2.561,2.561,0,0,0,.62-.113q.411-.112.492-.257a5.129,5.129,0,0,0,.113-1.515v-6.09a6.092,6.092,0,0,0-.113-1.385q-.049-.129-.475-.242a2.79,2.79,0,0,0-.637-.113c-.043,0-.065-.064-.065-.193a.407.407,0,0,1,.065-.274Q174.95,373.917,176.03,373.916Z" transform="translate(-102.365 -373.739)" fill="#fff"/>
    <path id="Path_17" data-name="Path 17" d="M202.152,373.9a4.05,4.05,0,0,1,1.111.161,4.808,4.808,0,0,1,1.112.484,2.554,2.554,0,0,1,.9.918,2.66,2.66,0,0,1,.354,1.385,2.528,2.528,0,0,1-.507,1.418,3.327,3.327,0,0,1-1.377,1.144c-.107.043-.14.1-.1.161a11.469,11.469,0,0,0,1.853,2.836q1.547,1.692,2.514,1.692a.494.494,0,0,1,.048.225.534.534,0,0,1-.048.242,1.687,1.687,0,0,1-.435.048,4.768,4.768,0,0,1-3.915-2.32q-.257-.354-.588-.846t-.483-.709c-.1-.145-.22-.3-.355-.475a2.637,2.637,0,0,0-.354-.387,1.446,1.446,0,0,0-.33-.209,1.941,1.941,0,0,0-.6-.064,1.78,1.78,0,0,0-.194.007.226.226,0,0,0-.128.073.261.261,0,0,0-.065.193v2.369a4.673,4.673,0,0,0,.129,1.4q.081.209.572.338a3.171,3.171,0,0,0,.7.129c.043,0,.065.076.065.226a.77.77,0,0,1-.033.242q-1.611-.081-2.094-.081l-1.966.081a.514.514,0,0,1-.048-.291c0-.139.017-.209.048-.209a2.881,2.881,0,0,0,.629-.1c.268-.065.43-.145.483-.241a5.107,5.107,0,0,0,.113-1.515v-6.09a6.06,6.06,0,0,0-.113-1.386q-.048-.129-.475-.242a2.79,2.79,0,0,0-.637-.113c-.043,0-.064-.064-.064-.193a.408.408,0,0,1,.064-.274l1.934.032q.484,0,1.144-.032T202.152,373.9Zm-.258.709a4.4,4.4,0,0,0-1.128.113c-.043.011-.078.051-.1.121a2.107,2.107,0,0,0-.065.483c-.016.252-.025.642-.025,1.168v1.95q0,.468,1.4.468h.4a1.762,1.762,0,0,0,1.168-.565,1.952,1.952,0,0,0,.6-1.5A1.987,1.987,0,0,0,201.894,374.609Z" transform="translate(-112.564 -373.787)" fill="#fff"/>
  </g>
  <path id="Path_19" data-name="Path 19" d="M157.625,278.864a.657.657,0,0,0-.468-.616c-2.93-.753-6.262-.09-9.158.514a.643.643,0,0,0-.453.453c-.317,1.153-.812,2.354-.066,3.464.4.592,1.063.741,1.553,1.217a3.2,3.2,0,0,1,.38,3.265c-1.029.1-2.037.227-2.963.326a46.13,46.13,0,0,1-12.123.148c-1.624-.25-4.316-1.063-5.8-.2-.926.538-1.226,1.848-2.1,2.4-.987.624-2.362.505-3.587.521a18.087,18.087,0,0,0,.28-2.3c.112-1.21-.108-2.8-1.552-3.136-1.323-.309-2.257,1-2.625,2.086a2.754,2.754,0,0,0,.07,2.111,9.86,9.86,0,0,0,.914,1.714,3.566,3.566,0,0,0-2.3.915,3.508,3.508,0,0,0-.966,2.687,9.521,9.521,0,0,0-.021,2.618c-2.2.248-4.408.591-6.591.823-1.609.172-3.337.36-4.966.606-.274.017-.549.031-.823.049a.449.449,0,0,0-.3.13,1.539,1.539,0,0,0-1.46,1.132c-.617,1.639.768,4.334,1.559,5.727a28.514,28.514,0,0,0,4.622,5.441,11.306,11.306,0,0,0,5.465,2.965.289.289,0,0,0,.239.4c-1.873-.2-4.513,1.2-6,2.222l-.065.059a21.744,21.744,0,0,0-2.966.007c-1.063.078-2.666,0-3.507.8s-1.233,2.854-.089,3.6a1.574,1.574,0,0,0,.744.2c.071,2.32.1,4.643.131,6.965.332.017.665.032,1,.04,0-.18-.016-.36-.017-.541a30.628,30.628,0,0,0-.454-6.47c.459-.034.911-.11,1.211-.143a44.29,44.29,0,0,1,4.854-.174c3.9,0,7.942.358,11.816-.045a114.3,114.3,0,0,1,12.047-.554c1.039,0,3.1.351,4.83.275-.043,1.746-.291,3.523-.37,5.29q.672-.012,1.345,0c.116-1.83.3-3.653.315-5.462a2.324,2.324,0,0,0,1.288-.7,1.568,1.568,0,0,0-.93-2.593c-1.249-.386-3.162.071-4.488-.045-.624-.055-1.206-.1-1.777-.133a1.316,1.316,0,0,0,.067-.232.619.619,0,0,0-.16-.6,17.058,17.058,0,0,0-4.639-2.082,18.017,18.017,0,0,0,2.31-.974c3.552-1.813,6.063-5.493,7.708-9.065.76-1.65,1.744-5.692-.657-6.417a13.869,13.869,0,0,0-4.955-.247c-2.938-.235-5.865-.431-8.826-.516a22.546,22.546,0,0,0-.393-3.11,3.144,3.144,0,0,0-.154-.522c1.28-.084,3.282-.146,4.183-.638.68-.372.931-1.2,1.579-1.579,1.4-.828,4.575-.354,6.212-.376,1.8-.025,3.591-.168,5.388-.212,3.527-.085,7.031-.515,10.567-.511,1.592,0,4.075.173,3.54-2.245a.565.565,0,0,0-.4-.4l-.157-.021a11,11,0,0,1,.338-2.551c.6-1.356,1.279-.86,1.967-1.658S157.691,279.933,157.625,278.864Zm-36.509,7.5c.95-.1.863.795.788,1.525-.037.353-.067.706-.122,1.058a6.254,6.254,0,0,1-.437,1.876c-.2-.012-.406-.019-.61-.021-.1-.549-.418-1.117-.557-1.623C119.9,288.185,119.777,286.5,121.116,286.368Zm.216,5.631a.623.623,0,0,0,.556.041l.44.041a3.869,3.869,0,0,1-.677.095c-1.029.02-2.035.259-3.057.342A4.308,4.308,0,0,1,121.332,292Zm-3.643,3.51a15.342,15.342,0,0,1,.212-1.972.612.612,0,0,0,.179.01,27.077,27.077,0,0,1,3.385-.458c.416,0,.921.068,1.416.092a9.226,9.226,0,0,1-.068,1.559c.026.673.073,1.351.067,2.027-.473-.009-.946-.018-1.42-.019a39.6,39.6,0,0,0-4.147.233C117.241,296.678,117.642,295.8,117.689,295.509Zm18.9,22.9,2.377-.007c.384.863-2.49.572-2.682.572a123.392,123.392,0,0,0-14.38.43c-5.043.6-10.239.141-15.327.215-.824.011-6.277.723-3.151-1.386,1.089-.734,3.019-.726,4.812-.715a.753.753,0,0,0,.3.212c2.027.793,4,.419,6.113.3,3.312-.178,6.678-.018,9.995-.018a40.76,40.76,0,0,0,6.255.16C132.822,318.122,134.639,318.341,136.59,318.4Zm-4.662-1.783c-.537-.372-4.481.1-5.652.1-3,0-6,.005-9,0-2,0-4.189.408-6.246.233l-.089-.04c-.166-.027-.334-.046-.5-.07a13.848,13.848,0,0,0,4.281-2.584.289.289,0,0,0,.078-.17,44.843,44.843,0,0,0,4.9.746,20.91,20.91,0,0,0,6.941-.267l.041.028c.612.263,1.205.6,1.815.886C129.289,315.85,131.33,316.206,131.928,316.621ZM134.017,299c.656-.012,2.745-.266,3.317.133,1.244.868.253,3.371-.235,4.409a37.116,37.116,0,0,1-2.5,3.913c-3.03,4.792-7.485,6.216-12.881,6.145a35.45,35.45,0,0,1-7.572-1.112c-3.257-.8-5.556-3.213-7.575-5.809-.956-1.23-3.961-5.3-1.8-6.606a5.65,5.65,0,0,1,2.194-.476C115.95,300.106,125.068,299.165,134.017,299Zm3.678-9.668c-2.479.136-5.982-.435-8.323.448-1.323.5-.407.653-1.839,1.5a7.148,7.148,0,0,1-2.765.529l-.016-.122a1.124,1.124,0,0,0-.055-.172,4.427,4.427,0,0,0,2.3-.48c1.547-.926,1.088-2.567,3.29-2.671a17.086,17.086,0,0,1,2.817.3c2.115.273,4.229.507,6.361.572Zm13.335-.422c-1.66.058-3.337.076-4.992.094-.594.007-1.192.021-1.789.037,2.376-.257,4.743-.656,7.139-.711a6.465,6.465,0,0,1,1.948-.08C154.206,288.907,149.781,288.958,151.031,288.914Zm2.357-2.01,0,.141a20.873,20.873,0,0,0-2.925.027,3.674,3.674,0,0,0-.533-4.206,24.724,24.724,0,0,0,4.882.06C153.606,283.961,153.733,285.472,153.388,286.9Zm2.681-5.35-.015,0a36.812,36.812,0,0,0-4.129.106c-.973.094-2.185.242-3.249.242a1.7,1.7,0,0,1,0-1.885c.4-.4,1.479-.417,2.025-.5a18.5,18.5,0,0,1,5.665-.121A9.775,9.775,0,0,1,156.068,281.554Z" transform="translate(-71.123 -277.912)" fill="#ffe09b"/>
</svg>
