<svg xmlns="http://www.w3.org/2000/svg" width="62.368" height="62.368" viewBox="0 0 62.368 62.368">
  <path id="weight" d="M54.572,7.8H51.407A23.377,23.377,0,1,1,7.8,19.49,23.212,23.212,0,0,1,10.961,7.8H7.8a7.8,7.8,0,0,0-7.8,7.8v38.98a7.8,7.8,0,0,0,7.8,7.8H54.572a7.8,7.8,0,0,0,7.8-7.8V15.592A7.8,7.8,0,0,0,54.572,7.8ZM31.184,38.98a19.49,19.49,0,1,0-19.49-19.49A19.489,19.489,0,0,0,31.184,38.98Zm-.037-18.508,4.09-9.545a1.95,1.95,0,0,1,3.586,1.534l-4.1,9.568a4.85,4.85,0,1,1-3.575-1.557Z" fill="#2e2e2e"/>
</svg>
